<mxfile host="app.diagrams.net" modified="2023-02-06T08:14:58.165Z" agent="5.0 (Windows NT 10.0; Win64; x64) AppleWebKit/537.36 (KHTML, like Gecko) Chrome/109.0.0.0 Safari/537.36 Edg/109.0.1518.78" etag="di7c05cAS5PO29TWzhMr" version="20.8.16" type="github">
  <diagram name="第 1 页" id="_OxOhdbIUb6aGDTrfxvc">
    <mxGraphModel dx="1434" dy="1925" grid="1" gridSize="10" guides="1" tooltips="1" connect="1" arrows="1" fold="1" page="1" pageScale="1" pageWidth="827" pageHeight="1169" math="0" shadow="0">
      <root>
        <mxCell id="0" />
        <mxCell id="1" parent="0" />
        <mxCell id="LcMBlBso1gNktjQwZKe_-1" value="my hourse" style="rounded=0;whiteSpace=wrap;html=1;" parent="1" vertex="1">
          <mxGeometry x="320" y="265" width="850" height="585" as="geometry" />
        </mxCell>
        <mxCell id="LcMBlBso1gNktjQwZKe_-2" value="公路" style="rounded=0;whiteSpace=wrap;html=1;fillColor=#CCCCCC;" parent="1" vertex="1">
          <mxGeometry x="160" y="-40" width="1300" height="80" as="geometry" />
        </mxCell>
        <mxCell id="LcMBlBso1gNktjQwZKe_-3" value="小路" style="rounded=0;whiteSpace=wrap;html=1;fillColor=#E6E6E6;" parent="1" vertex="1">
          <mxGeometry x="1430" y="40" width="30" height="800" as="geometry" />
        </mxCell>
        <mxCell id="faIzRQ_jaP85h7KNEP4n-1" value="后院" style="rounded=0;whiteSpace=wrap;html=1;fillColor=#E6E6E6;fillStyle=dots;" parent="1" vertex="1">
          <mxGeometry x="320" y="60" width="1060" height="190" as="geometry" />
        </mxCell>
        <mxCell id="faIzRQ_jaP85h7KNEP4n-3" value="北" style="html=1;shadow=0;dashed=0;align=center;verticalAlign=middle;shape=mxgraph.arrows2.arrow;dy=0.6;dx=40;direction=north;notch=0;fillColor=#E6E6E6;" parent="1" vertex="1">
          <mxGeometry x="1530" y="80" width="70" height="100" as="geometry" />
        </mxCell>
        <mxCell id="faIzRQ_jaP85h7KNEP4n-5" value="烤火房" style="rounded=0;whiteSpace=wrap;html=1;" parent="1" vertex="1">
          <mxGeometry x="1170" y="265" width="210" height="305" as="geometry" />
        </mxCell>
        <mxCell id="faIzRQ_jaP85h7KNEP4n-7" value="" style="rounded=0;whiteSpace=wrap;html=1;fillColor=#B3B3B3;fillStyle=dashed;" parent="1" vertex="1">
          <mxGeometry x="1170" y="570" width="170" height="280" as="geometry" />
        </mxCell>
        <mxCell id="faIzRQ_jaP85h7KNEP4n-8" value="邻居" style="rounded=0;whiteSpace=wrap;html=1;fillStyle=cross-hatch;fillColor=#B3B3B3;" parent="1" vertex="1">
          <mxGeometry y="270" width="310" height="580" as="geometry" />
        </mxCell>
        <mxCell id="faIzRQ_jaP85h7KNEP4n-9" value="护坡" style="rounded=0;whiteSpace=wrap;html=1;fillStyle=hatch;fillColor=#808080;" parent="1" vertex="1">
          <mxGeometry x="320" y="230" width="1060" height="20" as="geometry" />
        </mxCell>
        <mxCell id="faIzRQ_jaP85h7KNEP4n-14" value="卧室" style="rounded=0;whiteSpace=wrap;html=1;fillStyle=auto;fillColor=#d5e8d4;strokeColor=#82b366;" parent="1" vertex="1">
          <mxGeometry x="320" y="570" width="290" height="280" as="geometry" />
        </mxCell>
        <mxCell id="faIzRQ_jaP85h7KNEP4n-16" value="卧室" style="rounded=0;whiteSpace=wrap;html=1;fillStyle=auto;fillColor=#ffe6cc;strokeColor=#d79b00;" parent="1" vertex="1">
          <mxGeometry x="320" y="265" width="290" height="235" as="geometry" />
        </mxCell>
        <mxCell id="faIzRQ_jaP85h7KNEP4n-17" value="门廊" style="rounded=0;whiteSpace=wrap;html=1;fillStyle=auto;fillColor=#dae8fc;strokeColor=#6c8ebf;" parent="1" vertex="1">
          <mxGeometry x="610" y="570" width="170" height="280" as="geometry" />
        </mxCell>
        <mxCell id="faIzRQ_jaP85h7KNEP4n-12" value="正门" style="rounded=0;whiteSpace=wrap;html=1;fillStyle=hatch;fillColor=#808080;" parent="1" vertex="1">
          <mxGeometry x="635" y="850" width="120" height="60" as="geometry" />
        </mxCell>
        <mxCell id="faIzRQ_jaP85h7KNEP4n-18" value="棋牌室" style="rounded=0;whiteSpace=wrap;html=1;fillStyle=auto;fillColor=#e1d5e7;strokeColor=#9673a6;" parent="1" vertex="1">
          <mxGeometry x="740" y="265" width="200" height="235" as="geometry" />
        </mxCell>
        <mxCell id="faIzRQ_jaP85h7KNEP4n-19" value="楼梯" style="rounded=0;whiteSpace=wrap;html=1;fillStyle=auto;fillColor=#eeeeee;strokeColor=#36393d;" parent="1" vertex="1">
          <mxGeometry x="610" y="265" width="130" height="235" as="geometry" />
        </mxCell>
        <mxCell id="faIzRQ_jaP85h7KNEP4n-20" value="厨房" style="rounded=0;whiteSpace=wrap;html=1;fillStyle=auto;fillColor=#ffe6cc;strokeColor=#d79b00;" parent="1" vertex="1">
          <mxGeometry x="920" y="265" width="250" height="235" as="geometry" />
        </mxCell>
        <mxCell id="faIzRQ_jaP85h7KNEP4n-21" value="客厅/餐厅" style="rounded=0;whiteSpace=wrap;html=1;fillStyle=auto;fillColor=#f8cecc;strokeColor=#b85450;" parent="1" vertex="1">
          <mxGeometry x="780" y="570" width="390" height="280" as="geometry" />
        </mxCell>
        <mxCell id="faIzRQ_jaP85h7KNEP4n-23" value="侧门" style="rounded=0;whiteSpace=wrap;html=1;fillStyle=hatch;fillColor=#808080;" parent="1" vertex="1">
          <mxGeometry x="1170" y="500" width="20" height="70" as="geometry" />
        </mxCell>
      </root>
    </mxGraphModel>
  </diagram>
</mxfile>
